<svg width="20" height="20" viewBox="0 0 20 20" fill="none" xmlns="http://www.w3.org/2000/svg">
<g clip-path="url(#clip0_27_129)">
<path d="M10.0001 0.0416327C4.47724 0.0416327 0 4.53759 0 10.0835C0 15.0575 3.60522 19.1769 8.33225 19.9746V12.1785H5.91994V9.37303H8.33225V7.30437C8.33225 4.90414 9.79213 3.59616 11.9247 3.59616C12.9461 3.59616 13.8238 3.67258 14.0786 3.70624V6.21512L12.5995 6.21584C11.44 6.21584 11.2165 6.76903 11.2165 7.58109V9.37159H13.9832L13.6223 12.1771H11.2165V20.0416C16.1642 19.4369 20 15.2127 20 10.0806C20 4.53759 15.5228 0.0416327 10.0001 0.0416327Z" fill="#1877F2"/>
</g>
<defs>
<clipPath id="clip0_27_129">
<rect width="20" height="20" fill="white" transform="translate(0 0.0416327)"/>
</clipPath>
</defs>
</svg>
