<svg width="20" height="20" viewBox="0 0 20 20" fill="none" xmlns="http://www.w3.org/2000/svg">
<g clip-path="url(#clip0_27_125)">
<path d="M14.5861 0H5.41382C2.42859 0 0 2.42859 0 5.41382V14.5863C0 17.5714 2.42859 20 5.41382 20H14.5863C17.5714 20 20 17.5714 20 14.5863V5.41382C20 2.42859 17.5714 0 14.5861 0ZM18.8275 14.5863C18.8275 16.9248 16.9249 18.8275 14.5861 18.8275H5.41382C3.07511 18.8275 1.1725 16.9248 1.1725 14.5863V5.41382C1.1725 3.07511 3.07511 1.1725 5.41382 1.1725H14.5863C16.9249 1.1725 18.8275 3.07511 18.8275 5.41382V14.5863Z" fill="url(#paint0_linear_27_125)" style="mix-blend-mode:screen"/>
<path d="M10 4.53141C6.98457 4.53141 4.53141 6.98453 4.53141 10C4.53141 13.0155 6.98453 15.4686 10 15.4686C13.0155 15.4686 15.4686 13.0155 15.4686 10C15.4686 6.98453 13.0155 4.53141 10 4.53141ZM10 14.2961C7.63125 14.2961 5.70391 12.3689 5.70391 10C5.70391 7.63125 7.63125 5.70391 10 5.70391C12.3689 5.70391 14.2961 7.63125 14.2961 10C14.2961 12.3689 12.3689 14.2961 10 14.2961ZM15.5994 2.58926C14.7082 2.58926 13.9835 3.31422 13.9835 4.20516C13.9835 5.09629 14.7082 5.82121 15.5994 5.82121C16.4905 5.82121 17.2154 5.09629 17.2154 4.2052C17.2154 3.3141 16.4905 2.58926 15.5994 2.58926ZM15.5994 4.64859C15.3549 4.64859 15.1559 4.44961 15.1559 4.20516C15.1559 3.96059 15.3549 3.76176 15.5994 3.76176C15.8439 3.76176 16.0429 3.96059 16.0429 4.20516C16.0429 4.44961 15.8439 4.64859 15.5994 4.64859Z" fill="url(#paint1_linear_27_125)" style="mix-blend-mode:screen"/>
</g>
<defs>
<linearGradient id="paint0_linear_27_125" x1="18.0011" y1="1.00104" x2="2.50098" y2="17.5009" gradientUnits="userSpaceOnUse">
<stop stop-color="#B700FF"/>
<stop offset="0.197899" stop-color="#FF00C7"/>
<stop offset="0.38541" stop-color="#FF003E"/>
<stop offset="0.802101" stop-color="#FF8A00"/>
<stop offset="1" stop-color="#FFF500"/>
</linearGradient>
<linearGradient id="paint1_linear_27_125" x1="16.9975" y1="2.99757" x2="2.99685" y2="17.497" gradientUnits="userSpaceOnUse">
<stop stop-color="#B700FF"/>
<stop offset="0.333333" stop-color="#FF00C7"/>
<stop offset="0.666667" stop-color="#FF003E"/>
<stop offset="1" stop-color="#FF8A00"/>
</linearGradient>
<clipPath id="clip0_27_125">
<rect width="20" height="20" fill="white"/>
</clipPath>
</defs>
</svg>
