<svg width="21" height="20" viewBox="0 0 21 20" fill="none" xmlns="http://www.w3.org/2000/svg">
<g clip-path="url(#clip0_27_122)">
<path fill-rule="evenodd" clip-rule="evenodd" d="M17.1031 2.9065C15.2231 1.03322 12.7227 0.00109089 10.0589 -2.86102e-06C4.57 -2.86102e-06 0.102813 4.44568 0.100615 9.90978C0.099861 11.6565 0.558336 13.3616 1.42982 14.8645L0.0170898 20L5.29614 18.6218C6.75072 19.4115 8.38834 19.8276 10.0548 19.8281H10.0591C15.5474 19.8281 20.015 15.3821 20.0171 9.91772C20.0182 7.26953 18.9834 4.77968 17.1031 2.9065ZM10.0589 18.1544H10.0554C8.57034 18.1537 7.11377 17.7566 5.84278 17.0062L5.54071 16.8276L2.40803 17.6455L3.24416 14.6058L3.04728 14.2942C2.21875 12.9826 1.78122 11.4668 1.78197 9.91037C1.7837 5.36875 5.49678 1.67381 10.0622 1.67381C12.273 1.67453 14.3512 2.53243 15.9138 4.08943C17.4765 5.64643 18.3365 7.71603 18.3358 9.91709C18.3339 14.4591 14.621 18.1544 10.0589 18.1544ZM14.5989 11.9851C14.3502 11.8611 13.1268 11.2622 12.8986 11.1794C12.6707 11.0968 12.5047 11.0556 12.339 11.3034C12.173 11.5512 11.6962 12.1091 11.551 12.2742C11.4058 12.4396 11.2608 12.4603 11.0119 12.3363C10.7631 12.2124 9.96137 11.9508 9.01091 11.1072C8.27128 10.4505 7.77195 9.63962 7.62673 9.39184C7.48175 9.14378 7.62547 9.02268 7.73587 8.88643C8.00523 8.55356 8.27495 8.20456 8.35788 8.0394C8.4409 7.87409 8.39933 7.72947 8.33703 7.60556C8.27495 7.48165 7.77735 6.26278 7.57005 5.76681C7.36793 5.28415 7.16295 5.34931 7.01012 5.34178C6.86514 5.33456 6.69919 5.33309 6.53324 5.33309C6.36739 5.33309 6.09779 5.39497 5.86966 5.64303C5.64163 5.89097 4.99893 6.48997 4.99893 7.70884C4.99893 8.92772 5.89051 10.1052 6.01489 10.2705C6.13923 10.4358 7.7695 12.937 10.2654 14.0095C10.8591 14.2649 11.3225 14.4171 11.684 14.5312C12.2801 14.7197 12.8224 14.6931 13.2512 14.6293C13.7293 14.5582 14.7232 14.0302 14.9307 13.4518C15.138 12.8734 15.138 12.3777 15.0757 12.2742C15.0136 12.171 14.8477 12.1091 14.5989 11.9851Z" fill="#00E676"/>
</g>
<defs>
<clipPath id="clip0_27_122">
<rect width="20" height="20" fill="white" transform="translate(0.0170898 -2.86102e-06)"/>
</clipPath>
</defs>
</svg>
