<?xml version="1.0" encoding="UTF-8"?>
<svg viewBox="0 0 165 24" fill="white" xmlns="http://www.w3.org/2000/svg">
<path d="M140.561 20.0435C140.512 21.226 140.289 21.8561 139.98 23H156.042C157.175 22.9852 158.331 23.118 159.184 22.385C160.178 21.5714 161.017 20.59 161.66 19.487C162.354 18.321 162.903 17.0774 163.295 15.7829C163.672 14.6122 164.02 13.2278 164.042 12C164.031 10.6968 163.683 9.56819 163.295 8.32203C162.915 7.04416 162.351 5.82624 161.619 4.70536C160.947 3.66199 160.075 2.7557 159.053 2.03603C158.1 1.35895 156.953 0.996214 155.776 1.00003H140.022C140.337 2.16412 140.518 3.35924 140.562 4.56301L140.561 20.0435ZM148.042 6H153C153.585 5.99297 153.972 6.18003 154.5 6.5C155.114 6.87228 155.514 7.46868 155.775 7.82599C156.199 8.40679 156.769 9.05328 157 10C157.185 10.759 157.042 11.1947 157.042 12C157.042 12.8053 156.872 13.5607 156.542 14.5C156.307 15.1661 156.124 15.5277 155.775 16.1375C155.459 16.6953 155.039 17.1899 154.537 17.5958C154.066 17.9784 153.653 18.0059 153.042 18H148.042V7L147 6H148.042Z" />
<path d="M137.25 10.4509C137.685 9.6209 137.936 8.7113 137.99 7.78053C137.99 7.68036 138 1 138 1H116C116.282 2.04285 116.457 3.11046 116.523 4.18711V19.8129C116.457 20.8896 116.282 21.9572 116 23H124.247C123.974 21.983 123.8 20.9429 123.729 19.8938V17.1324H126.582L131.541 22.9909H137.998V19.6706C137.724 19.3554 134.855 15.8348 133.645 14.3323C135.155 13.349 136.394 12.0176 137.254 10.4554M129.655 9.21132C129.264 9.82885 128.709 10.3318 128.05 10.6671C127.387 10.9928 126.668 11.1962 125.929 11.267C125.2 11.3445 124.733 11.2649 124 11.267V8L123 6.4818H130C130.032 7.43326 130.131 8.37518 129.655 9.20562" />
<path d="M105.147 2.91824C105 2.5 105 1 105 1H95C94.9997 1.65734 95 2.5 94.8543 2.91824L87.4384 20.3964C87.0888 21.3237 86.6047 22.2 86 23H93C92.9848 22.2776 93.5281 21.5601 93.8199 20.8928C93.9997 20.5042 94.3074 19.9106 94.5 19.5L94 19H106L105.5 19.5C105.693 19.9121 106.004 20.5057 106.184 20.8928C106.473 21.5606 107.017 22.2781 107 23H114C113.398 22.1982 112.914 21.3223 112.562 20.3964L105.147 2.91824ZM100 13H97L100 7L103 13H100Z" />
<path d="M84 1.00799H75C75.3079 2.13965 76 3.57258 76 4.5V8L77 9H67L68 8V4.5C68 3.67927 68.6921 2.13965 69 1.00799H60C60.2827 2.05331 60.4582 3.12341 60.5241 4.20255V19.8066C60.4583 20.8854 60.2827 21.9551 60 23H69C68.692 21.8687 68.045 20.71 68 19.5404V16L67 15H76.9319L76 16V19.5C75.955 20.6696 75.308 21.8687 75 23H84C83.7165 21.9552 83.5405 20.8854 83.4747 19.8066V4.19456C83.5406 3.11535 83.7166 2.04521 84 1" />
<path d="M43.2216 3.27183C42.0306 3.38358 40.8736 3.74339 39.82 4.32971C38.7664 4.91604 37.8377 5.7168 37.0898 6.68403C35.7356 8.47027 34.9996 10.6763 35.0001 12.9481V13.0667C34.9959 14.3284 35.1831 15.5829 35.5549 16.7842C35.8975 17.9192 36.4152 18.9891 37.0879 19.9523C37.7098 20.8458 38.4997 21.5994 39.4101 22.1678C40.2913 22.7187 41.3022 23.0066 42.3312 22.9999H48.8653C49.8315 23.0019 50.7748 22.6956 51.567 22.1224C52.4141 21.5165 53.1423 20.7492 53.7129 19.8614C54.9499 17.9346 55.6196 15.6765 55.6405 13.3622V13.3048L55.6949 10.196C55.7426 7.08492 56.1814 3.99355 57 1C52.4555 2.04418 47.8543 2.80218 43.2216 3.27183ZM49.7518 15.0855C49.5972 15.6731 49.3606 16.2341 49.0493 16.7506C48.7646 17.2272 48.3928 17.6414 47.9548 17.97C47.5 18 47.0134 18.0037 46.5 18H44C44 18 43 18 42.7106 17.9582C42.2886 17.6137 41.9328 17.19 41.6619 16.7091C41.3653 16.1893 41.1406 15.6287 40.9945 15.044C40.8422 14.4676 40.7637 13.8729 40.761 13.2752C40.7736 12.5104 41 11 41 11C41 11 41.0393 10.6468 41.17 10.3951C41.3982 9.94811 41.6211 9.81855 42 9.5C42.3637 9.19558 43.0326 8.99316 43.5 9H49L48.5 10C48.6263 10.1655 48.8047 10.3047 49 10.5C49.1953 10.6953 49.3453 10.7712 49.5 11C49.6767 11.2614 49.7966 11.7514 49.7966 11.7514C49.7966 11.7514 50.0109 12.7546 50.0168 13.2683C50.0122 13.8831 49.9269 14.4945 49.7632 15.0855H49.7518Z" />
<path d="M33 0.999999H24C24.3432 2.13608 24.5408 3.30237 24.5891 4.4771V19.5229C24.5412 20.6977 24.3436 21.864 24 23H33C32.656 21.864 32.458 20.6977 32.4097 19.5229V4.48051C32.4579 3.30458 32.6559 2.13712 33 0.999999Z" />
<path d="M7.06732 6.20888H8.2253L7.48889 7.15937V19.6511C7.43472 20.7825 7.25643 21.9052 6.95692 23H15.0466C14.7454 21.9054 14.5663 20.7827 14.5123 19.6511V7.15595L13.7817 6.21116H17.4613C18.6558 6.26169 19.8417 6.43183 21 6.71884V1H1V6.71657C2.15883 6.42978 3.34499 6.25927 4.53982 6.20774L7.06732 6.20888Z" />
</svg>
