<?xml version="1.0" encoding="UTF-8"?>
<svg xmlns="http://www.w3.org/2000/svg" width="200" height="200" viewBox="0 0 40 40" fill="#9015c0" stroke="#9015c0">
<g>
  <path d="M34.707 3.293A1 1 0 0 0 33 4a2.877 2.877 0 0 1-2.3 2.808 16.939 16.939 0 0 0-21.4 0A2.877 2.877 0 0 1 7 4a1 1 0 0 0-1.707-.707A8.423 8.423 0 0 0 3 8.75a14.653 14.653 0 0 0 1.168 5.048A17.002 17.002 0 1 0 37 20a16.897 16.897 0 0 0-1.168-6.202A14.653 14.653 0 0 0 37 8.75a8.423 8.423 0 0 0-2.293-5.457Zm-.88 10.885a15 15 0 1 1-27.655 0 1.001 1.001 0 0 0-.007-.793A13.299 13.299 0 0 1 5 8.75a5.49 5.49 0 0 1 .586-2.385 5.615 5.615 0 0 0 3.7 2.52.996.996 0 0 0 .902-.212 14.943 14.943 0 0 1 19.624 0 .996.996 0 0 0 .902.213 5.615 5.615 0 0 0 3.7-2.52A5.49 5.49 0 0 1 35 8.75a13.299 13.299 0 0 1-1.166 4.635 1.001 1.001 0 0 0-.006.793Z"></path>
  <path d="M17.132 19.658a26.746 26.746 0 0 1-6.538-3.63.866.866 0 0 0-1.383.67c-.08 2.63.252 7.447 3.752 7.447 3.515 0 4.463-2.277 4.718-3.505a.861.861 0 0 0-.549-.982ZM29.406 16.028a26.739 26.739 0 0 1-6.538 3.63.861.861 0 0 0-.55.982c.257 1.228 1.205 3.505 4.72 3.505 3.498 0 3.83-4.817 3.75-7.447a.866.866 0 0 0-1.382-.67Z" ></path>
</g>
</svg>
