<svg width="35" height="30" viewBox="0 0 35 30" fill="none" xmlns="http://www.w3.org/2000/svg">
<path d="M31.1249 27H4.87501C3.83943 27 3 26.0672 3 24.9167C3 23.7661 3.83943 22.8333 4.87501 22.8333H31.125C32.1605 22.8333 33 23.7661 33 24.9167C32.9999 26.0672 32.1605 27 31.1249 27ZM31.1249 16.5833H4.87501C3.83943 16.5833 3 15.6506 3 14.5C3 13.3495 3.83943 12.4167 4.87501 12.4167H31.125C32.1605 12.4167 33 13.3494 33 14.5C33 15.6507 32.1605 16.5833 31.1249 16.5833ZM31.1249 6.16668H4.87501C3.83943 6.16668 3 5.23398 3 4.08334C3 2.9327 3.83943 2 4.87501 2H31.125C32.1605 2 33 2.9327 33 4.08334C33 5.23398 32.1605 6.16668 31.1249 6.16668Z" fill="white"/>
</svg>
