<svg width="20" height="13" viewBox="0 0 20 13" fill="none" xmlns="http://www.w3.org/2000/svg">
<path d="M18.5021 0H1.49785C0.670586 0 0 0.665292 0 1.48603V4.33333H20V1.48603C20 0.665292 19.3294 0 18.5021 0ZM0 11.514C0 12.3347 0.670586 13 1.49785 13H18.5021C19.3294 13 20 12.3347 20 11.514V8.66667H0V11.514Z" fill="#82AFFF"/>
<path d="M0 4.33333H20V8.66667H0V4.33333Z" fill="#F5F5F5"/>
<path d="M11.7241 6.41447H10.4826C10.5057 6.39703 10.524 6.37986 10.5406 6.36366C10.5709 6.33425 10.595 6.31088 10.659 6.2848C10.7233 6.25806 10.7569 6.25775 10.7995 6.25709C10.8509 6.25674 10.909 6.25577 11.004 6.21698C11.0988 6.17787 11.1402 6.13776 11.1767 6.10238C11.207 6.07297 11.2311 6.0496 11.2952 6.02317C11.359 5.99678 11.3926 5.99643 11.435 5.99612C11.4862 5.99542 11.5442 5.9948 11.6392 5.9557L11.5729 5.79797C11.5091 5.82436 11.4755 5.82471 11.4331 5.82502C11.3819 5.82571 11.3239 5.82633 11.2291 5.86513C11.1343 5.90423 11.0929 5.94434 11.0563 5.97972C11.026 6.00914 11.0019 6.03251 10.9379 6.05859C10.8736 6.08533 10.84 6.08564 10.7974 6.0863C10.746 6.08665 10.6879 6.08762 10.5929 6.12672C10.4982 6.16547 10.4567 6.20593 10.4202 6.24131C10.3903 6.27011 10.3657 6.29317 10.3043 6.3189L11.2801 5.35094L11.1581 5.22999L10.2798 6.10126C10.2837 6.07277 10.2847 6.04743 10.285 6.02445C10.2855 5.98201 10.2858 5.94891 10.3124 5.88513C10.339 5.82134 10.3626 5.79758 10.3923 5.76755C10.4283 5.73112 10.4689 5.68973 10.5083 5.59551C10.5475 5.5013 10.5482 5.44383 10.5487 5.39306C10.5492 5.35098 10.5495 5.31753 10.576 5.25409C10.6026 5.19061 10.626 5.16689 10.6556 5.13682C10.6915 5.10039 10.732 5.05927 10.7713 4.96541L10.612 4.89996C10.5854 4.9634 10.562 4.98715 10.5324 5.01723C10.4965 5.05365 10.456 5.09477 10.4167 5.18864C10.3775 5.28285 10.3768 5.34032 10.3763 5.39109C10.3758 5.43317 10.3754 5.46662 10.349 5.53006C10.3224 5.59385 10.2988 5.6176 10.2692 5.64764C10.2331 5.68407 10.1926 5.72546 10.1532 5.81967C10.114 5.91388 10.1133 5.9717 10.1126 6.02247C10.1123 6.06367 10.1111 6.09695 10.0862 6.15811V4.78943H9.9138V6.02115C9.89802 6.00098 9.88098 5.98181 9.86279 5.96376C9.83302 5.93368 9.80959 5.90962 9.78294 5.84618C9.75634 5.78239 9.75583 5.74898 9.75533 5.70651C9.75482 5.6557 9.75416 5.59792 9.71478 5.50371C9.67556 5.40984 9.63494 5.36876 9.59908 5.3323C9.56943 5.30222 9.54607 5.27851 9.51943 5.21503C9.49302 5.15155 9.49267 5.11814 9.49216 5.07605C9.49166 5.02525 9.49099 4.96781 9.45173 4.87391L9.29248 4.93937C9.31888 5.00285 9.31923 5.03594 9.31974 5.07799C9.32025 5.1288 9.32091 5.18623 9.36017 5.28044C9.39939 5.37431 9.44001 5.41539 9.47587 5.45185C9.50552 5.48193 9.52888 5.50564 9.55552 5.56912C9.58212 5.63291 9.58263 5.66632 9.58314 5.70879C9.58365 5.7596 9.58431 5.81738 9.62369 5.91159C9.66291 6.00581 9.70353 6.04688 9.73939 6.08331C9.76861 6.11277 9.79173 6.13738 9.81767 6.1981L8.84181 5.23006L8.7199 5.35102L9.69423 6.31754C9.6408 6.29348 9.61501 6.27135 9.58701 6.24438C9.55017 6.20864 9.50857 6.16822 9.41326 6.12912C9.3183 6.09037 9.26021 6.08936 9.20884 6.0887C9.16607 6.08835 9.13244 6.08773 9.06759 6.06099C9.00275 6.0346 8.97853 6.01123 8.94771 5.98151C8.91087 5.94608 8.86908 5.9057 8.77361 5.86625C8.6783 5.82715 8.62001 5.82649 8.56853 5.82583C8.5256 5.82513 8.49177 5.82451 8.42693 5.79777L8.36095 5.95612C8.45626 5.99523 8.51455 5.99588 8.56603 5.99654C8.60896 5.99724 8.64279 5.99786 8.70763 6.0246C8.77263 6.05099 8.79685 6.07436 8.82767 6.10409C8.86451 6.13982 8.9063 6.17989 9.00158 6.21903C9.09689 6.25844 9.15517 6.25914 9.2065 6.2598C9.24927 6.2605 9.28291 6.26077 9.34744 6.28751C9.41193 6.3139 9.43603 6.33727 9.4665 6.36672C9.48216 6.38199 9.49966 6.39808 9.52083 6.41451H8.27576V6.58557H9.65287C9.59845 6.60611 9.56443 6.6087 9.52544 6.60928C9.47412 6.60963 9.41599 6.6106 9.32087 6.6494C9.22576 6.6885 9.18396 6.72888 9.14712 6.76434C9.11646 6.79407 9.0924 6.81743 9.02791 6.84383C8.96306 6.87057 8.92923 6.87122 8.8863 6.87188C8.83478 6.87258 8.77654 6.8732 8.68123 6.9123C8.58576 6.95172 8.544 6.99179 8.50712 7.02756C8.4763 7.05728 8.45209 7.08065 8.38724 7.10704L8.45322 7.26539C8.54853 7.22598 8.59029 7.18591 8.62712 7.15014C8.65794 7.12041 8.68216 7.09704 8.74716 7.07065C8.81201 7.04391 8.84583 7.04325 8.88876 7.04259C8.94029 7.0419 8.99853 7.04128 9.09404 7.00183C9.189 6.96272 9.2306 6.92261 9.26744 6.88688C9.2979 6.85747 9.32216 6.8341 9.38685 6.80767C9.45115 6.78093 9.48501 6.78062 9.52763 6.77996C9.54943 6.77984 9.574 6.77841 9.6006 6.77515L8.71978 7.6489L8.84169 7.76986L9.81556 6.80383C9.79158 6.85661 9.76943 6.88208 9.74216 6.90994C9.7063 6.94637 9.66576 6.98776 9.6263 7.08197C9.58689 7.17618 9.58603 7.23435 9.58556 7.28508C9.58486 7.32752 9.58459 7.36088 9.55775 7.42506C9.53099 7.48955 9.50724 7.51357 9.47744 7.544C9.44142 7.58042 9.40084 7.62216 9.36127 7.71672C9.3217 7.81128 9.32099 7.8691 9.32037 7.92018C9.31966 7.96262 9.31919 7.99633 9.29244 8.06047L9.45169 8.12593C9.49126 8.03137 9.49197 7.97355 9.49259 7.92247C9.4933 7.88003 9.49376 7.84632 9.52052 7.78218C9.54728 7.71769 9.57103 7.69366 9.60083 7.66324C9.63685 7.62681 9.67744 7.58507 9.71701 7.49051C9.75642 7.3963 9.75728 7.33813 9.75775 7.2874C9.75845 7.24497 9.75873 7.2116 9.78556 7.14742C9.81216 7.08329 9.83572 7.05953 9.86552 7.02915C9.88083 7.01357 9.89712 6.99621 9.91369 6.97509V8.21049H10.0861V6.84433C10.1067 6.8982 10.1093 6.93187 10.1099 6.97071C10.1104 7.02151 10.1112 7.0793 10.1506 7.17351C10.1898 7.26807 10.2306 7.30949 10.2665 7.34588C10.2962 7.37631 10.3198 7.40033 10.3466 7.46447C10.3733 7.52861 10.3738 7.56237 10.3745 7.60476C10.3752 7.65588 10.3758 7.71366 10.4154 7.80822C10.455 7.90278 10.4955 7.94456 10.5316 7.98095C10.5613 8.01137 10.5851 8.0354 10.6119 8.09988L10.7711 8.03443C10.7316 7.93987 10.691 7.89809 10.655 7.8617C10.6252 7.83128 10.6014 7.80725 10.5747 7.74277C10.5479 7.67863 10.5474 7.64487 10.5467 7.60248C10.546 7.55136 10.5454 7.49358 10.5058 7.39902C10.4664 7.30446 10.4259 7.26303 10.39 7.22664C10.3602 7.19622 10.3366 7.17219 10.3099 7.10805C10.2831 7.04426 10.2827 7.01086 10.282 6.96838C10.2818 6.94418 10.2801 6.92001 10.2771 6.89599L11.1581 7.76989L11.28 7.64894L10.4018 6.77783C10.4303 6.78159 10.4558 6.78271 10.4788 6.78302C10.5214 6.78337 10.555 6.78372 10.6193 6.81007C10.6836 6.83681 10.7077 6.85983 10.7381 6.88955C10.7749 6.92498 10.8164 6.96536 10.9114 7.0045C11.0062 7.04325 11.0643 7.04391 11.1155 7.04426C11.1579 7.04496 11.1914 7.04523 11.2554 7.07166C11.3194 7.0977 11.3433 7.12111 11.3736 7.15053C11.4103 7.18595 11.4518 7.22633 11.5465 7.26547L11.6125 7.10712C11.5485 7.08108 11.5246 7.05767 11.4943 7.02826C11.4576 6.99284 11.4161 6.95245 11.3214 6.91331C11.2266 6.87456 11.1685 6.8739 11.1173 6.87355C11.0749 6.87285 11.0414 6.87258 10.9774 6.84615C10.9131 6.81976 10.889 6.7967 10.8585 6.76694C10.8218 6.73152 10.7802 6.69113 10.6852 6.65234C10.5903 6.61293 10.5322 6.61223 10.4808 6.61192C10.439 6.61122 10.4052 6.61045 10.3432 6.58553H11.724L11.7241 6.41447Z" fill="#F09146"/>
<path d="M9.99999 7.3553C10.4761 7.3553 10.8621 6.97237 10.8621 6.5C10.8621 6.02763 10.4761 5.6447 9.99999 5.6447C9.52386 5.6447 9.13788 6.02763 9.13788 6.5C9.13788 6.97237 9.52386 7.3553 9.99999 7.3553Z" fill="#FFE15A"/>
</svg>
